<svg width="375" height="175" xmlns="http://www.w3.org/2000/svg" xml:space="preserve" shape-rendering="geometricPrecision" text-rendering="geometricPrecision" image-rendering="optimizeQuality" fill-rule="evenodd" clip-rule="evenodd">
 <g id="Layer_1">
  <title>Layer 1</title>
  <g>
   <path p-id="3460" d="m41.42548,98.20635c2.17959,-0.11485 4.20484,-0.27558 6.21083,-0.32146c8.6992,-0.18367 17.24407,1.05614 25.3645,4.95953c3.97342,1.90582 7.81192,4.11 11.26453,7.20975c2.83544,2.54874 3.45275,5.7173 2.16031,10.4014c-0.81005,2.89298 -2.43028,5.07438 -4.47482,6.98004c-4.82228,4.4775 -9.87585,8.51853 -15.68166,10.79168c-4.06992,1.6073 -8.29417,2.82432 -12.53756,3.60503c-5.57438,1.0332 -11.22611,1.49245 -16.85831,2.11227c-1.15725,0.13795 -2.33378,-0.04588 -3.49117,-0.04588c-0.5979,0 -0.75223,-0.36734 -0.7715,-0.98732c-0.15433,-3.05387 -0.2701,-6.13052 -0.50153,-9.18438c-0.28938,-3.94927 -0.61731,-7.89855 -1.00306,-11.82488c-0.5208,-5.48775 -1.09943,-10.95241 -1.67806,-16.41707c-0.59803,-5.76333 -1.21521,-11.50373 -1.79383,-17.26691c-0.57863,-5.62539 -1.09943,-11.27372 -1.71674,-16.8991c-0.6944,-6.42919 -1.46591,-12.85839 -2.19886,-19.28742c-0.86801,-7.59987 -2.06394,-15.13108 -3.70345,-22.54759c-0.0771,-0.32146 0.15433,-1.0332 0.38575,-1.12511c5.45873,-2.61771 10.93674,-5.16614 16.39534,-7.76075c1.81311,-0.87262 1.96744,-1.12526 1.98671,1.6073c0.01927,11.64121 0.05782,23.28242 0.21228,34.92363c0.0771,6.06185 0.26997,12.1234 0.61718,18.16231c0.4243,7.37032 1.08016,14.74095 1.63951,22.11143c0,0.32146 0.11578,0.61998 0.1736,0.80365m10.89793,33.79852a9685.75272,11527.33472 0 0 0 14.9487,-13.47806c-0.61731,-1.05629 -14.23489,-7.41651 -17.43694,-8.26588c0.81018,7.18665 1.63964,14.35052 2.48837,21.74394m56.5369,-2.22991c-2.59646,-31.33022 -4.78907,-63.00454 -9.80878,-94.49518c1.63482,-0.22955 3.26964,-0.50497 4.9236,-0.6657c1.90401,-0.20645 3.8273,-0.29837 5.73144,-0.48203c1.59627,-0.16057 2.19248,0.3444 2.28872,2.20356c0.28847,4.98061 0.53851,9.96122 0.82698,14.94198c0.38458,6.72492 0.78856,13.47294 1.19242,20.19802c0.28847,4.84297 0.53851,9.70889 0.86553,14.55186c0.3653,5.30191 0.76929,10.58104 1.17314,15.88296c0.28847,3.902 0.55779,7.82678 0.88468,11.72878c0.34616,4.22315 0.73087,8.44645 1.0963,12.6696c0.09611,1.21656 0.2115,2.43296 0.28847,3.64951c0.03855,0.66555 -0.26919,0.75746 -0.78856,0.68849c-2.82724,-0.34424 -5.65447,-0.59673 -8.67393,-0.87216m-23.61352,-45.42795c2.29419,-0.39012 4.51115,-0.82612 6.72811,-1.12433c1.60018,-0.22939 3.2195,-0.25249 4.81968,-0.436c0.86748,-0.09191 1.42658,0.27527 1.5615,1.28491c0.36635,2.68482 0.75184,5.39228 1.02181,8.10004c0.44344,4.49749 0.79052,9.01792 1.19528,13.51541c0.34694,3.94679 0.69401,7.87065 1.07963,11.81728c0.42404,4.22206 0.88676,8.42134 1.33007,12.62047c0.13505,1.23919 0.23142,2.50115 0.36635,3.85504a1238.14043,1473.55189 0 0 0 -9.73559,1.49152c-2.77605,-17.0262 -5.55224,-33.91461 -8.36684,-51.12433m49.74913,52.51556c-3.13654,0 -6.15691,0.02294 -9.17728,-0.04588c-0.25174,0 -0.69701,-0.52838 -0.71641,-0.84999c-0.46467,-5.74256 -0.87126,-11.46235 -1.29712,-17.20507l-1.2199,-15.98758c-0.42586,-5.48992 -0.83258,-10.98 -1.25844,-16.47008c-0.0194,-0.32146 -0.07749,-0.62013 -0.13557,-1.10248c1.123,-0.16088 2.18792,-0.41353 3.27211,-0.41353c2.92361,0 5.84709,0.09191 8.7901,0.18382c0.75509,0.02294 1.08419,0.62013 1.123,1.44703c0.09676,1.72292 0.23234,3.42275 0.23234,5.14552c0.01927,8.08562 -0.0194,16.19434 0.03868,24.27997c0.05808,6.45492 0.23234,12.93263 0.3485,19.38739l0,1.63086zm-43.22848,-59.82435c-0.69115,-6.59783 -1.3823,-13.03539 -2.09272,-19.74776c1.80464,-0.02294 3.60942,-0.0916 5.39492,-0.0916c0.59517,0 0.86397,0.3895 0.92153,1.16835c0.48004,6.00218 0.97922,12.00436 1.49755,18.23578c-1.86234,0.11454 -3.78224,0.27481 -5.72128,0.43523m36.32611,-17.96919c1.5546,0 3.20621,-0.02294 4.87724,0c0.83571,0.02294 1.24373,0.41415 1.24373,1.58777c-0.05834,5.61454 -0.01954,11.22923 -0.01954,16.82083l0,1.26553c-2.0013,-0.11501 -3.9251,-0.23017 -6.0819,-0.34517c-0.01954,-6.37401 -0.01954,-12.77097 -0.01954,-19.32896m-43.2936,19.36415c-0.96685,-6.38471 -1.95298,-12.72369 -2.93924,-19.22295c1.75971,-0.32037 3.5193,-0.66369 5.25973,-0.9154c0.77346,-0.11439 0.63814,0.68663 0.67682,1.19005c0.21267,2.15118 0.36726,4.27941 0.56065,6.43043c0.30943,3.36401 0.61887,6.72802 0.9089,10.06925c0.03868,0.43476 0,0.89246 0,1.3731c-1.46955,0.3661 -2.93924,0.70941 -4.46687,1.07551m35.21913,-19.19458c1.65631,0 3.31248,0.02294 4.94939,-0.02294c0.74038,-0.02309 1.01322,0.16088 0.99368,1.17223c-0.05847,2.68947 0.01954,5.37895 0.03907,8.09136c0.01954,3.33317 0,6.68912 0,9.99919c-1.67584,0.20692 -3.13732,0.3678 -4.71562,0.57472c-0.40919,-6.50514 -0.83779,-12.9875 -1.26652,-19.81456"/>
  </g>
  <g>
   <rect x="128.50017" y="-30.49991" fill="none" height="233.99985" width="233.99985"/>
   <path fill-rule="evenodd" d="m323.50005,28.00005l-155.9999,0a19.49999,19.49999 0 0 0 -19.49999,19.49999l0,77.99995a19.49999,19.49999 0 0 0 19.49999,19.49999l155.9999,0a19.49999,19.49999 0 0 0 19.49999,-19.49999l0,-77.99995a19.49999,19.49999 0 0 0 -19.49999,-19.49999zm-104.42243,85.79995l-2.8275,-10.43249l-17.93999,0l-2.8275,10.43249l-16.57499,0l17.84249,-55.86746l20.37749,0l18.62249,55.86746l-16.67249,0zm61.81496,-30.61498a16.57499,16.57499 0 0 1 -3.51,6.24a17.74499,17.74499 0 0 1 -6.5325,4.29a26.81248,26.81248 0 0 1 -9.74999,1.6575l-4.29,0l0,18.42749l-15.20999,0l0,-55.67246l19.49999,0a23.69249,23.69249 0 0 1 15.79499,4.5825a16.28249,16.28249 0 0 1 5.3625,13.16249a23.00999,23.00999 0 0 1 -1.365,7.3125zm25.15498,30.61498l-15.11249,0l0,-55.67246l15.11249,0l0,55.67246zm-95.15994,-31.88248l2.34,9.06749l-11.79749,0l2.34,-9.06749c0,-1.2675 0.78,-2.73 1.17,-4.5825s0.8775,-3.705 1.2675,-5.5575a45.14247,45.14247 0 0 0 0.975,-4.68c0,1.2675 0.6825,2.8275 1.0725,4.875l1.4625,5.655l1.17,4.29zm54.50247,-9.74999a5.5575,5.5575 0 0 1 1.56,4.1925a7.3125,7.3125 0 0 1 -1.0725,4.095a5.7525,5.7525 0 0 1 -2.6325,2.145a8.77499,8.77499 0 0 1 -3.6075,0.6825l-3.0225,0l0,-12.96749l3.9,0a6.1425,6.1425 0 0 1 4.485,1.6575l0.39,0.195z"/>
  </g>
 </g>

</svg>