<?xml version="1.0" encoding="UTF-8"?>
<svg id="_图层_1" data-name="图层_1" xmlns="http://www.w3.org/2000/svg" version="1.1" xmlns:xlink="http://www.w3.org/1999/xlink" viewBox="0 0 1346 324">
  <!-- Generator: Adobe Illustrator 29.3.1, SVG Export Plug-In . SVG Version: 2.1.0 Build 151)  -->
  <defs>
    <style>
      .st0 {
        fill: #2e2e30;
      }

      .st1 {
        fill: #fff;
      }

      .st2 {
        fill: #f46a61;
      }

      .st3 {
        fill: none;
      }

      .st4 {
        fill: red;
      }

      .st5 {
        fill: #f6b737;
      }

      .st6 {
        fill: #2d6ecb;
      }

      .st7 {
        fill: #ed1c24;
      }

      .st8 {
        clip-path: url(#clippath);
      }
    </style>
    <clipPath id="clippath">
      <rect class="st3" width="347" height="324"/>
    </clipPath>
  </defs>
  <g>
    <path class="st6" d="M301.76,224.96c-10.77,6.46-22.82,9.85-35.23,11.39-3.94-20.78-12.23-42.44-19.22-58.52,5.38-7.05,10.55-14.27,15.45-21.67,3.07-4.64,6.28-9.56,9.44-14.68,11.72,5.97,22.67,12.91,32.47,20.94,24.23,19.87,25.65,45.4-2.91,62.54ZM250.11,286.54c-21.67,17.79-56.26,4.22-75.96-9.58-3.61-2.53-7.07-5.24-10.4-8.1,9.63-9.09,18.59-18.53,26.65-26.97,18.99,2.8,37.5,4.23,54.48,4.23,5.4,0,11.05-.24,16.79-.8,2.38,16.07.42,31.39-11.56,41.22ZM73.97,287.59c-8.91-18.77.91-48.19,13.4-74.56,9.14,4.03,18.66,7.7,28.42,11.01,9.54,16.24,20.61,31.7,33.37,44.57-31.64,26.27-63.58,43.43-75.19,18.97ZM53.67,183.86c-20.33-13.56-41.04-34.32-14.47-53.36,9.11-6.53,19.94-10.93,31.42-13.88,4.81,16.13,10.19,30.33,13.41,38.96,3.17,8.47,6.76,17.52,10.79,26.8-2.1,3.93-4.14,7.85-6.1,11.76-.99,1.96-2.23,4.45-3.65,7.34-10.97-5.17-21.5-11.02-31.41-17.63ZM89.36,28.03c33.44,0,62.22,19.67,86.17,46.81-9.57,8.59-18.62,17.95-27.14,27.85-11.44-.35-22.8-.17-33.95.56-11.18.73-23.84,1.44-36.43,3.26-9.99-33.01-18.73-78.49,11.35-78.49ZM242.65,167.48c-7.14-15.46-14.78-30.83-23.43-45.58,14.51,3.74,28.72,8.51,42.13,14.44-6.18,11.31-12.76,22.04-18.7,31.14ZM181.37,81.71c6.86,8.39,13.3,17.35,19.3,26.56-13.4-2.5-26.95-4.15-40.46-5.02.32-.33.63-.66.95-.99,6.2-6.42,12.95-13.53,20.21-20.55ZM101.18,170.82c-4.65-11.54-8.88-23.06-12.9-34.17-1.56-4.3-4.57-12.35-7.78-22.19,16.51-3.06,33.74-3.66,48.85-3.66,3.97,0,8.01.07,12.09.21-15.23,18.85-28.66,39.3-40.27,59.81ZM108.74,211.41c-5.81-2.16-11.54-4.48-17.17-6.96,2.36-4.69,4.76-9.22,7.08-13.52,3.12,6.8,6.48,13.67,10.09,20.48ZM122.39,216.13c-6.55-11.75-12.32-24.05-17.55-36.44,2.49-4.47,4.77-8.5,6.65-11.95,11.18-20.51,25.31-38.99,40.99-56.22,17.92,1.11,36.58,3.56,54.98,7.57,11.71,19.35,21.56,39.25,29.51,56.88-5.57,8.13-10.12,14.15-12.51,16.9-4.68,5.38-18.32,21.05-35.69,38.78-22.25-3.51-44.74-8.52-66.38-15.53ZM129.7,228.47c16.6,4.96,33.67,8.9,50.49,11.79-7.51,7.41-15.5,14.93-23.62,22.03-10.22-10.01-19.07-21.48-26.88-33.82ZM244.29,192.8c4.8,11.37,12.03,27.75,15.8,44.19-11.08.82-22.33.34-33.08-.63-9.26-.83-18.69-1.89-28.19-3.21,14.82-15.16,29.18-30.91,42.41-47.52,1.06,2.45,2.08,4.84,3.06,7.17ZM256.88,41.04c43.26,0,30.2,45.61,8.83,87.11-17.02-7.56-34.97-13.34-53.35-17.48-7.36-11.53-15.45-22.56-24.53-32.82-.35-.4-.72-.81-1.09-1.23,20.24-18.74,44.03-35.58,70.14-35.58ZM302.25,148.26c-8.07-5.45-16.54-10.36-25.29-14.78,11.1-19.34,20.31-41.07,18.88-62.29-2.63-39.01-40.23-45.33-70.61-30.47-15.85,7.75-30.64,17.8-44.38,29.48-23.47-24.94-67.08-63.88-99.22-51.94-28.4,10.55-23.36,53.35-13.41,89.93-15.38,3.06-30.04,8.28-41.09,17.83-25.39,21.93-3.38,48.64,17.86,63.56,10.79,7.58,22.94,14.43,35.99,20.55-15.99,34.53-40.56,99.52,6.97,99.53,24.06,0,47.64-15.55,68.53-34.13,18.9,16.71,41.23,27.6,67.47,27.6,40.15,0,48.01-27.23,43.91-58.53,21.79-2.99,43.9-10.92,57.1-28.18,20.38-26.64.69-52.37-22.7-68.15"/>
    <path class="st2" d="M206.03,168.45c-1.76,15.38-15.46,26.96-29.98,30.48-16.07,3.89-31.12-8.69-34.59-23.98-2.68-11.79,1.36-23.3,9.7-31.16,6.89-12.07,25.67-13.86,37.36-8.45,12.34,5.71,19.03,19.88,17.52,33.11"/>
    <g class="st8">
      <path class="st0" d="M302.43,178.28c-5.28-.52-9.46.38-14.35-2.53-4.57-2.71-6.96-6.7-9.13-11.4-.41-.89-1.83-.43-1.81.49.14,5.85,4.42,10.9,9.22,13.83,4.38,2.67,12.03,4.98,16.61,1.65.91-.66.56-1.94-.55-2.05ZM203.88,196.5c-6.56,2.4-12.18,6.54-19.04,8.45-7.27,2.03-14.45,1.98-21.91,1.98-1.33,0-1.61,1.97-.32,2.32,7.49,2.06,15.79,1.24,23.21-.73,6.72-1.79,14.89-4.8,19.2-10.54.52-.69-.35-1.78-1.15-1.48ZM129.31.94c-4.6-1.7-12.26-2.23-15.74,1.95-.41.48-.18,1.37.55,1.34,2.46-.1,4.77-1.06,7.25-1.1,3.04-.05,6.17.72,8.83,2.19,4.28,2.37,6.05,9.04,10.89,9.97.95.18,1.54-.69,1.18-1.53-2.33-5.44-7.35-10.76-12.96-12.82ZM89.35,37.03c-7.32,1.06-12.36,10.4-14.03,16.83-1.51,5.85-2.08,17.24,4.05,20.81.82.48,1.89-.14,1.89-1.08,0-2.82-1.5-5.4-2.02-8.16-.65-3.44-.48-7,.34-10.4.78-3.23,2.13-6.32,4.07-9.02,1.96-2.72,4.72-4.56,6.79-7.13.72-.9.04-2.02-1.09-1.86ZM343.24,182.19c-.61-1.22-2.44-.35-2.14.9,2.19,8.95,3.14,17.71.88,26.77-1.04,4.17-2.65,8.17-4.78,11.91-2.18,3.85-5.29,7.06-7.48,10.88-.54.93.52,1.9,1.42,1.43,8.1-4.22,12.67-15.46,14.57-23.88,2.08-9.18,1.83-19.47-2.46-28.01ZM303.29,39.58c-7.34-9.92-18.93-16.42-31.21-17.43-1.05-.09-1.25,1.57-.24,1.82,11.66,2.86,23.07,8.53,29.81,18.85,3.74,5.72,5.49,12.29,6.11,19.05.59,6.46-.96,13.52.38,19.8.23,1.09,1.71.91,2.04,0,2.37-6.68,1.53-16.07.57-22.99-.95-6.9-3.31-13.47-7.46-19.09ZM256.23,304.06c-7.37,3.56-14.29,7.43-22.43,9.03-8.28,1.62-16.94,1.35-25.15-.52-1.49-.34-2.08,1.8-.63,2.29,15.58,5.19,37.56,3.39,49.44-9.21.81-.86-.2-2.08-1.23-1.59ZM187.43,311.34c-4.85-2.94-10.21-4.81-14.94-8.01-5.08-3.43-9-7.87-13.65-11.77-.69-.57-1.64.13-1.23.95,4.78,9.73,18.46,19.69,29.33,20.64,1,.09,1.26-1.34.49-1.81ZM78.22,319.63c-13.47.55-23.29-6.63-27.08-19.69-3.97-13.71-.29-27.76-1.41-41.67-.09-1.18-1.91-1.6-2.19-.3-1.84,8.55-2.33,17.84-2.42,26.57-.07,7.44.74,14.88,3.72,21.76,4.57,10.54,17.86,22.07,29.86,15.14.81-.47.48-1.85-.49-1.81ZM19.82,182.97c.7.63.13,1.8-.75,1.81-8.43.02-14.49-9.49-17.03-16.5-4.01-11.06-2.01-22.84.27-34.03.29-1.43,2.69-1.1,2.55.34-.97,9.79-2.41,20.4.39,30,1.21,4.16,3.28,8.15,6.15,11.4,2.45,2.78,5.68,4.55,8.43,6.98"/>
    </g>
    <path class="st5" d="M123.54,140.32c-3.95-2.24-8.55-3.84-13.03-2.34-1.88.63-4.05,2.01-5.19,3.81-3.11,4.03-3.46,10.52-1.48,15.59,3.79,9.7,12.7,10.44,20.46,4.6,3.77-2.83,6.9-6.84,6.77-11.78-.14-4.77-3.68-7.7-7.53-9.88ZM313.98,147.91c-13.26-17.38-38.77,3.03-27.46,17.97,10.43,13.8,39.73-1.89,27.46-17.97ZM131.52,39.22c-7.8,6.34-20.6,8.26-25.42-2.77-2.54-5.83-.99-11.61,2.7-15.76,4.36-8.96,14.22-13.18,23.4-6.3,8.85,6.63,7.47,18.19-.68,24.82"/>
    <path class="st1" d="M119.55,141.85c-.92-.04-1.56,1.3-.8,1.93,1.78,1.44,3.59,2.37,4.68,4.52.94,1.88.72,4.06,1.58,5.89.21.44.83.44,1.15.15,1.97-1.89.96-5.46-.15-7.54-1.26-2.34-3.65-4.81-6.45-4.94ZM299.4,147.72c.49-.41.23-1.33-.39-1.45-10.33-2.07-16.17,18.88-3.17,18.9.78,0,1.05-.9.59-1.44-.9-1.07-2.04-1.76-3.01-2.73-1.88-1.89-1.7-4.65-.56-6.92,1.52-3.03,4.07-4.3,6.53-6.36ZM116.99,16.89c-4.19,2.76-7.89,6.26-7.68,11.7.12,3.27,2.32,8.63,6.38,7.77.63-.14.8-.86.56-1.36-1.3-2.68-3.68-3.9-3.56-7.32.13-3.58,2.72-7.21,5.24-9.57.64-.59-.2-1.7-.93-1.21ZM187.71,185.71c-3.18.35-6.11,1.85-9.27,2.49-3.88.79-7.81,1.01-11.74.73-1.15-.08-1.41,1.78-.28,2.02,6.65,1.42,16.77,1.73,22.05-3.4.63-.6.19-1.95-.77-1.85ZM160.89,143.14c-4.72,5.99-7.59,13.2-8.68,20.72-.57,3.94-1.03,8.25.2,12.1,1.18,3.74,4.13,6.39,6.2,9.6.48.74-.31,1.51-1.06,1.38-9.42-1.63-10.8-13.84-9.79-21.44,1.21-9.18,4.3-18.2,11.99-23.85.94-.69,1.74.73,1.14,1.48"/>
  </g>
  <g>
    <rect class="st3" x="459.08" y="47.44" width="779.92" height="170.56"/>
    <path d="M573.92,101.94c4.69,0,10.55-.19,17.58-.59v12.3c-7.03-.38-12.89-.59-17.58-.59h-19.34v53.32c0,5.47,2.93,8.2,8.79,8.2h16.99c3.9,0,6.64-5.47,8.2-16.41,4.29,2.74,8.59,4.5,12.89,5.27-1.96,13.67-8.01,20.89-18.16,21.68h-26.95c-8.99,0-13.48-4.69-13.48-14.06v-58.01h-21.09c1.56,35.94-12.3,61.72-41.6,77.34-2.74-3.52-6.65-6.84-11.72-9.96,28.9-10.55,42.57-33,41.02-67.38h-15.23c-5.86,0-12.51.2-19.92.59v-12.3c7.42.39,14.06.59,19.92.59h79.69ZM563.37,64.44c3.52,0,8.98-.19,16.41-.59v11.13c-7.03-.38-12.51-.59-16.41-.59h-60.35c-4.69,0-9.96.2-15.82.59v-11.13c5.86.39,10.93.59,15.23.59h60.94Z"/>
    <path d="M678.22,67.36c0-1.95-.2-5.66-.59-11.13h12.3c-.39,4.69-.59,8.4-.59,11.13h31.05c6.24,0,12.5-.19,18.75-.59v10.55c-6.25-.38-12.3-.59-18.16-.59h-31.64v9.96h23.44c5.47,0,11.72-.19,18.75-.59v9.38c-6.65-.38-12.89-.59-18.75-.59h-23.44v9.38h40.43c5.47,0,11.72-.19,18.75-.59v9.96c-7.03-.38-13.28-.59-18.75-.59h-45.7c-4.3,3.52-9.96,7.42-16.99,11.72,10.15-.38,20.11-.78,29.88-1.17,4.29-1.56,9.38-4.69,15.23-9.38,4.29,3.13,8.2,5.86,11.72,8.2-6.65,2.34-14.06,5.67-22.27,9.96l-26.37,12.89c14.06-.78,29.68-1.76,46.88-2.93-1.96-2.73-4.1-4.88-6.45-6.45,3.12-1.56,6.05-3.52,8.79-5.86,9.38,9.38,16.21,16.41,20.51,21.09-3.52,2.34-7.03,4.89-10.55,7.62-2.34-3.9-4.3-6.64-5.86-8.2-16.8.79-28.91,1.57-36.33,2.34v22.27c.38,5.86-1.17,9.47-4.69,10.84-3.52,1.36-8.79,2.64-15.82,3.81-1.17-3.52-3.13-7.62-5.86-12.3,5.07,0,8.88-.2,11.43-.59,2.54-.39,3.81-2.14,3.81-5.27v-18.16c-5.47.39-13.38,1.08-23.73,2.05-10.35.98-17.49,1.86-21.39,2.64-.79-3.9-1.96-7.42-3.52-10.55,5.86-.38,11.43-1.17,16.7-2.34s10.45-2.64,15.53-4.39c5.07-1.76,10.93-4.59,17.58-8.5-10.16.39-17.49.79-21.97,1.17-4.5.39-9.67.98-15.53,1.76-.79-4.69-1.96-8.4-3.52-11.13,5.86,0,10.84-.97,14.94-2.93,4.1-1.95,8.1-4.69,12.01-8.2h-29.3c-6.25,0-12.89.2-19.92.59v-9.96c7.03.39,13.48.59,19.34.59h39.84v-9.38h-22.85c-5.47,0-11.53.2-18.16.59v-9.38c6.64.39,12.5.59,17.58.59h23.44v-9.96h-28.71c-5.86,0-12.3.2-19.34.59v-10.55c7.03.39,13.48.59,19.34.59h28.71ZM648.04,175.18c-6.06,3.52-12.8,7.03-20.21,10.55-1.57-3.52-4.3-6.84-8.2-9.96,7.03-1.95,13.86-4.59,20.51-7.91,6.64-3.31,12.1-6.54,16.41-9.67,2.73,3.52,5.47,6.45,8.2,8.79-5.08,1.96-10.65,4.69-16.7,8.2ZM746.77,174.01c-2.74,3.52-4.89,7.22-6.45,11.13-11.72-7.03-23.05-12.69-33.98-16.99,2.34-2.73,4.1-5.86,5.27-9.38,10.93,4.3,22.65,9.38,35.16,15.23Z"/>
    <path d="M889.74,87.29v87.89c-.39,6.64-2.34,10.64-5.86,12.01-3.52,1.36-11.33,2.44-23.44,3.22-.39-3.13-1.96-7.23-4.69-12.3,10.55.38,17.08.09,19.63-.88,2.54-.97,3.61-3.02,3.22-6.15v-100.78h-84.38c0,30.47-.39,51.08-1.17,61.82-.79,10.75-2.44,21.19-4.98,31.35-2.54,10.16-6.15,19.34-10.84,27.54-2.34-2.74-6.25-5.86-11.72-9.38,5.86-7.03,10.15-16.6,12.89-28.71,2.73-12.1,4.29-24.51,4.69-37.21.38-12.69.19-30.95-.59-54.79h107.81c-.39,8.2-.59,16.99-.59,26.37ZM828.8,73.81h11.72c-.39,4.69-.59,9.18-.59,13.48,10.15,0,18.16-.19,24.02-.59v11.13c-5.47-.38-13.48-.59-24.02-.59v13.48c11.72,0,22.46-.19,32.23-.59v11.13c-10.16-.38-18.75-.59-25.78-.59h-22.85c-6.65,0-14.65.2-24.02.59v-11.13c9.38.39,19.34.59,29.88.59v-13.48c-7.82,0-15.82.2-24.02.59v-11.13c7.81.39,15.82.59,24.02.59,0-5.47-.2-9.96-.59-13.48ZM807.12,168.73c.38-4.69.59-9.57.59-14.65v-10.55c0-3.52-.2-7.62-.59-12.3h55.08c-.39,3.13-.59,6.84-.59,11.13v13.48c0,4.3.19,8.6.59,12.89h-55.08ZM850.48,159.36v-18.75h-31.64v18.75h31.64Z"/>
    <path d="M936.32,169.61c-4.1,5.67-8.11,10.64-12.01,14.94-3.91-2.74-7.23-4.89-9.96-6.45,3.52-2.73,7.22-6.54,11.13-11.43,3.9-4.88,7.03-9.67,9.38-14.36l11.72,7.03c-2.74,1.17-6.15,4.6-10.25,10.25ZM930.76,56.23h12.3c-.39,7.82-.59,14.26-.59,19.34h26.37c0-7.42-.2-13.86-.59-19.34h12.89c-.39,6.65-.59,13.09-.59,19.34,2.73,0,6.24-.19,10.55-.59v9.96c-3.91-.38-7.42-.59-10.55-.59v55.66c3.12,0,6.64-.19,10.55-.59v9.96c-7.42-.38-14.65-.59-21.68-.59h-31.64c-8.6,0-16.02.2-22.27.59v-9.96c5.86.39,11.13.59,15.82.59v-55.66c-3.52,0-7.62.2-12.3.59v-9.96c4.29.39,8.4.59,12.3.59,0-5.86-.2-12.3-.59-19.34ZM968.84,97.25v-12.89h-26.37v12.89h26.37ZM968.84,118.34v-12.3h-26.37v12.3h26.37ZM968.84,140.02v-12.89h-26.37v12.89h26.37ZM961.22,159.36c2.34-1.56,4.88-3.9,7.62-7.03,4.69,4.69,10.15,10.55,16.41,17.58-3.13,2.34-6.25,5.08-9.38,8.2-6.25-9.38-11.13-15.62-14.65-18.75ZM1036.22,172.25v-32.81h-25.78c-.79,9.38-2.93,18.37-6.45,26.95-3.52,8.6-8.6,16.6-15.23,24.02-2.74-3.52-6.45-6.06-11.13-7.62,6.64-6.64,11.62-13.67,14.94-21.09,3.31-7.42,5.27-14.84,5.86-22.27.59-7.42.88-19.53.88-36.33s-.2-30.85-.59-41.02h49.8c-.39,7.42-.59,16.41-.59,26.95v86.13c0,5.47-1.76,9.17-5.27,11.13-3.52,1.95-8.2,3.31-14.06,4.1,0-4.3-1.57-8.79-4.69-13.48,8.98,1.17,13.08-.39,12.3-4.69ZM1036.22,97.25v-26.37h-25.2v26.37h25.2ZM1036.22,130.65v-24.61h-25.2v24.61h25.2Z"/>
    <path d="M1128.22,71.47c0-5.07-.2-10.74-.59-16.99h13.48c-.79,4.69-1.17,10.35-1.17,16.99h35.74c5.47,0,11.33-.19,17.58-.59v11.13c-6.25-.78-11.92-1.17-16.99-1.17h-36.33v11.13h28.71c6.24,0,12.3-.19,18.16-.59v10.55c-5.47-.38-11.53-.59-18.16-.59h-28.71v12.89h41.6c7.03,0,13.67-.19,19.92-.59v11.13c-5.86-.78-12.3-1.17-19.34-1.17h-50.98c-2.74,3.52-7.03,8.4-12.89,14.65v33.98c7.03-3.9,14.84-8.79,23.44-14.65.78,4.69,2.14,8.79,4.1,12.3-7.42,3.52-14.16,7.22-20.21,11.13-6.06,3.9-10.65,7.22-13.77,9.96-3.13-3.91-5.86-7.42-8.2-10.55,2.73-1.96,3.9-6.45,3.52-13.48v-18.75c-4.69,3.91-9.58,7.53-14.65,10.84-5.08,3.32-10.35,6.55-15.82,9.67-2.34-3.52-5.27-6.83-8.79-9.96,9.38-3.9,18.65-9.17,27.83-15.82,9.17-6.64,16.11-13.08,20.8-19.34h-27.54c-7.42,0-14.65.39-21.68,1.17v-11.13c4.69.39,12.5.59,23.44.59h37.5v-12.89h-26.37c-6.65,0-12.11.2-16.41.59v-10.55c6.24.39,11.72.59,16.41.59h26.37v-11.13h-29.3c-7.42,0-14.26.39-20.51,1.17v-11.72c5.86.79,13.67,1.17,23.44,1.17h26.37ZM1156.34,151.74c7.81-6.24,14.84-13.67,21.09-22.27,3.52,3.52,7.62,6.84,12.3,9.96-3.52,1.17-7.42,3.62-11.72,7.32-4.3,3.72-8.99,7.91-14.06,12.6,3.9,3.91,9.76,6.94,17.58,9.08,7.81,2.15,15.03,3.42,21.68,3.81-3.52,4.29-5.67,8.98-6.45,14.06-19.92-4.69-34.48-11.91-43.65-21.68-9.18-9.76-15.92-21.09-20.21-33.98l9.38-4.1c2.73,8.2,7.42,16.61,14.06,25.2Z"/>
  </g>
  <g>
    <rect class="st3" x="352.77" y="207.22" width="993.23" height="76.78"/>
    <path class="st7" d="M357.24,261.4v-44.38h8.25v44.38h-8.25ZM364.74,248.68v-7.59h6.09c2.73,0,4.84-.75,6.33-2.25,1.49-1.5,2.23-3.59,2.23-6.28,0-2.54-.75-4.5-2.23-5.88-1.49-1.38-3.6-2.06-6.33-2.06h-5.97v-7.59h5.97c5.56,0,9.86,1.31,12.91,3.92,3.04,2.61,4.56,6.31,4.56,11.08,0,5.29-1.52,9.39-4.56,12.3-3.04,2.91-7.34,4.36-12.91,4.36h-6.09Z"/>
    <path d="M412.21,262.03c-5.65,0-10.01-1.48-13.08-4.45-3.07-2.97-4.61-7.23-4.61-12.8s1.3-9.62,3.91-12.62c2.6-3,6.28-4.5,11.03-4.5,4.48,0,7.94,1.35,10.39,4.06,2.45,2.71,3.67,6.65,3.67,11.81,0,1.52-.06,2.94-.19,4.25h-23.25v-5.06h17.44c0-2.98-.71-5.27-2.12-6.86-1.42-1.59-3.38-2.39-5.88-2.39-2.81,0-5,.96-6.55,2.88-1.55,1.92-2.33,4.62-2.33,8.12,0,3.83,1.07,6.75,3.2,8.75,2.14,2,5.17,3,9.11,3,1.38,0,2.73-.08,4.06-.23,1.33-.16,2.69-.37,4.06-.64l.81,5.81c-1.96.38-3.75.61-5.38.72-1.62.1-3.06.16-4.31.16Z"/>
    <path d="M430.27,261.4v-5.44h22.12v5.44h-22.12ZM431.52,233.72v-5.44h11.06l.62,5.44h-11.69ZM437.65,261.4v-33.12h5.38l1.25,9.5v23.62h-6.62ZM444.27,247.15l-1.94-10.38h2.56c.38-6.08,3.42-9.12,9.12-9.12,3.42,0,5.9.98,7.44,2.94,1.54,1.96,2.31,5.12,2.31,9.5h-6.56c0-2.42-.36-4.16-1.08-5.22s-1.88-1.59-3.48-1.59c-2.81,0-4.91,1.2-6.3,3.61-1.39,2.41-2.08,5.83-2.08,10.27Z"/>
    <path d="M470.27,261.4v-5.44h13.25v5.44h-13.25ZM472.15,233.72v-5.44h17.38v5.44h-17.38ZM485.99,223.03c-1.27,0-2.36-.45-3.27-1.36s-1.36-1.99-1.36-3.27.45-2.39,1.36-3.28c.91-.9,1.99-1.34,3.27-1.34s2.39.45,3.28,1.34c.9.9,1.34,1.99,1.34,3.28s-.45,2.36-1.34,3.27c-.9.91-1.99,1.36-3.28,1.36ZM482.9,261.4v-31.25h6.62v31.25h-6.62ZM488.9,261.4v-5.44h10.81v5.44h-10.81Z"/>
    <path d="M521.52,262.03c-4.58,0-8.15-1.5-10.69-4.5-2.54-3-3.81-7.23-3.81-12.69s1.27-9.71,3.81-12.7c2.54-2.99,6.1-4.48,10.69-4.48s8.17,1.5,10.7,4.48c2.53,2.99,3.8,7.22,3.8,12.7s-1.27,9.69-3.8,12.69-6.1,4.5-10.7,4.5ZM521.52,256.09c2.44,0,4.32-.98,5.64-2.94,1.32-1.96,1.98-4.73,1.98-8.31s-.66-6.38-1.98-8.33c-1.32-1.95-3.2-2.92-5.64-2.92s-4.32.97-5.64,2.92c-1.32,1.95-1.98,4.72-1.98,8.33s.66,6.35,1.98,8.31c1.32,1.96,3.2,2.94,5.64,2.94Z"/>
    <path d="M556.49,262.03c-4.33,0-7.62-1.43-9.86-4.28-2.24-2.85-3.36-7.05-3.36-12.59s1.12-10.1,3.36-13.06c2.24-2.96,5.53-4.44,9.86-4.44,2.48,0,4.49.58,6.05,1.75,1.55,1.17,2.46,2.79,2.73,4.88h2.56l-1.94,9.44c0-3.42-.67-6.01-2.02-7.78-1.34-1.77-3.32-2.66-5.92-2.66s-4.69,1-6.06,3-2.06,4.96-2.06,8.88c0,3.71.69,6.51,2.06,8.41,1.38,1.9,3.4,2.84,6.06,2.84s4.58-.89,5.92-2.66c1.34-1.77,2.02-4.36,2.02-7.78l2.25,9.44h-2.88c-.21,2.08-1.09,3.71-2.64,4.88-1.55,1.17-3.6,1.75-6.14,1.75ZM566.58,261.72l-.69-6.5v-40.69h6.62v46.88l-5.94.31Z"/>
    <path d="M582.77,261.4v-5.44h13.25v5.44h-13.25ZM584.65,233.72v-5.44h17.38v5.44h-17.38ZM598.49,223.03c-1.27,0-2.36-.45-3.27-1.36s-1.36-1.99-1.36-3.27.45-2.39,1.36-3.28c.91-.9,1.99-1.34,3.27-1.34s2.39.45,3.28,1.34c.9.9,1.34,1.99,1.34,3.28s-.45,2.36-1.34,3.27c-.9.91-1.99,1.36-3.28,1.36ZM595.4,261.4v-31.25h6.62v31.25h-6.62ZM601.4,261.4v-5.44h10.81v5.44h-10.81Z"/>
    <path d="M637.21,262.03c-5.65,0-10.01-1.48-13.08-4.45-3.07-2.97-4.61-7.23-4.61-12.8s1.45-9.62,4.36-12.62,7.06-4.5,12.45-4.5c3.23,0,5.99.6,8.3,1.8,2.3,1.2,3.94,2.89,4.92,5.08l-5.09,3.84c-.94-1.52-2.14-2.7-3.59-3.53-1.46-.83-3.05-1.25-4.78-1.25-3.12,0-5.55.94-7.28,2.83-1.73,1.89-2.59,4.57-2.59,8.05,0,3.77,1.02,6.65,3.05,8.64,2.03,1.99,4.93,2.98,8.7,2.98,1.54,0,3.08-.07,4.62-.22,1.54-.15,3.04-.34,4.5-.59l.75,5.81c-1.71.38-3.47.62-5.3.75-1.82.12-3.6.19-5.33.19Z"/>
    <path class="st4" d="M692.24,224.62v-7.59h33.56v7.59h-33.56ZM704.9,261.4v-44.38h8.25v44.38h-8.25Z"/>
    <path d="M741.65,262.03c-3.46,0-6.14-.83-8.03-2.5-1.9-1.67-2.84-4.02-2.84-7.06,0-3.5,1.31-6.19,3.92-8.06,2.61-1.88,6.31-2.81,11.08-2.81,1.98,0,3.74.12,5.3.36,1.55.24,2.93.6,4.14,1.08l-1.38,4.5c-1.4-.31-2.76-.49-4.09-.55-1.33-.05-2.7-.08-4.09-.08-5.75,0-8.62,1.75-8.62,5.25,0,1.46.49,2.58,1.48,3.38.99.79,2.39,1.19,4.2,1.19,2.06,0,3.79-.35,5.17-1.06,1.39-.71,2.42-1.61,3.11-2.72.69-1.1,1.03-2.24,1.03-3.41v-3.62l1.94,8.5h-2.62l1.06-1c0,1.92-.44,3.52-1.33,4.8-.89,1.28-2.13,2.24-3.73,2.88-1.6.64-3.5.95-5.69.95ZM753.33,261.72l-.44-9.81-.88-2.75v-8.56c0-2.21-.78-3.83-2.33-4.86-1.55-1.03-3.86-1.59-6.92-1.67l-7.94-.22.62-5.88,6.69.09c5.48.08,9.55,1.27,12.2,3.55s3.98,5.61,3.98,9.98v13.81l5.62.69v5.31l-10.62.31Z"/>
    <path d="M770.37,261.4v-46.88h6.62v46.31l-6.62.56ZM779.24,262.03c-1.5,0-2.98-.06-4.44-.17-1.46-.11-2.94-.27-4.44-.45l2.56-6.06c1.1.52,2.32.83,3.66.92,1.33.09,2.66.14,3.97.14,3.98,0,7.06-1.2,9.23-3.59,2.18-2.4,3.27-5.78,3.27-10.16,0-3-.66-5.31-1.98-6.94-1.32-1.62-3.2-2.44-5.64-2.44-5.62,0-8.44,3.17-8.44,9.5l-1.94-8.5h2.56c.31-4.42,3.02-6.62,8.12-6.62,4.42,0,7.83,1.3,10.25,3.91,2.42,2.6,3.62,6.3,3.62,11.09,0,6.15-1.78,10.91-5.33,14.3-3.55,3.39-8.57,5.08-15.05,5.08Z"/>
    <path d="M805.83,219.97v-5.44h10.31v5.44h-10.31ZM826.46,262.03c-3.83,0-6.6-1.04-8.31-3.12-1.71-2.08-2.56-5.42-2.56-10v-34.38h6.62v34.06c0,1.75.17,3.18.5,4.28.33,1.1.98,1.92,1.95,2.44.97.52,2.4.78,4.3.78,1.73,0,3.94-.4,6.62-1.19l.75,5.81c-1.69.46-3.31.79-4.86,1-1.55.21-3.22.31-5.02.31Z"/>
    <path d="M862.21,262.03c-5.65,0-10.01-1.48-13.08-4.45-3.07-2.97-4.61-7.23-4.61-12.8s1.3-9.62,3.91-12.62c2.6-3,6.28-4.5,11.03-4.5,4.48,0,7.94,1.35,10.39,4.06,2.45,2.71,3.67,6.65,3.67,11.81,0,1.52-.06,2.94-.19,4.25h-23.25v-5.06h17.44c0-2.98-.71-5.27-2.12-6.86-1.42-1.59-3.38-2.39-5.88-2.39-2.81,0-5,.96-6.55,2.88-1.55,1.92-2.33,4.62-2.33,8.12,0,3.83,1.07,6.75,3.2,8.75,2.14,2,5.17,3,9.11,3,1.38,0,2.73-.08,4.06-.23,1.33-.16,2.69-.37,4.06-.64l.81,5.81c-1.96.38-3.75.61-5.38.72-1.62.1-3.06.16-4.31.16Z"/>
    <path class="st4" d="M934.02,262.03c-11.27,0-16.91-7.5-16.91-22.5s5.64-23.12,16.91-23.12,16.91,7.71,16.91,23.12-5.63,22.5-16.91,22.5ZM934.02,254.15c5.5,0,8.25-4.88,8.25-14.62s-2.75-15.28-8.25-15.28-8.25,5.09-8.25,15.28,2.75,14.62,8.25,14.62Z"/>
    <path d="M954.9,241.22v-5.44h30.62v5.44h-30.62ZM965.33,261.4v-30.31c0-11.46,5.23-17.19,15.69-17.19,2.38,0,4.67.21,6.88.62l-.69,5.75c-1.31-.17-2.47-.28-3.47-.34s-1.97-.09-2.91-.09c-5.92,0-8.88,3.65-8.88,10.94v30.62h-6.62Z"/>
    <path class="st4" d="M1032.24,261.4v-44.38h8.25v44.38h-8.25ZM1032.24,224.62v-7.59h30.44v7.59h-30.44ZM1032.24,243v-7.62h24.81v7.62h-24.81ZM1032.24,261.4v-7.59h30.44v7.59h-30.44Z"/>
    <path d="M1068.33,219.97v-5.44h10.31v5.44h-10.31ZM1088.96,262.03c-3.83,0-6.6-1.04-8.31-3.12-1.71-2.08-2.56-5.42-2.56-10v-34.38h6.62v34.06c0,1.75.17,3.18.5,4.28.33,1.1.98,1.92,1.95,2.44.97.52,2.4.78,4.3.78,1.73,0,3.94-.4,6.62-1.19l.75,5.81c-1.69.46-3.31.79-4.86,1-1.55.21-3.22.31-5.02.31Z"/>
    <path d="M1124.71,262.03c-5.65,0-10.01-1.48-13.08-4.45-3.07-2.97-4.61-7.23-4.61-12.8s1.3-9.62,3.91-12.62c2.6-3,6.28-4.5,11.03-4.5,4.48,0,7.94,1.35,10.39,4.06,2.45,2.71,3.67,6.65,3.67,11.81,0,1.52-.06,2.94-.19,4.25h-23.25v-5.06h17.44c0-2.98-.71-5.27-2.12-6.86-1.42-1.59-3.38-2.39-5.88-2.39-2.81,0-5,.96-6.55,2.88-1.55,1.92-2.33,4.62-2.33,8.12,0,3.83,1.07,6.75,3.2,8.75,2.13,2,5.17,3,9.11,3,1.38,0,2.73-.08,4.06-.23,1.33-.16,2.69-.37,4.06-.64l.81,5.81c-1.96.38-3.75.61-5.38.72-1.62.1-3.06.16-4.31.16Z"/>
    <path d="M1143.77,261.4v-33.12h5.88l.75,7v26.12h-6.62ZM1156.21,261.4v-25.94c0-1.88-.88-2.81-2.62-2.81-2.12,0-3.19,1.5-3.19,4.5l-1.94-4.75h2.12c.25-3.17,2.15-4.75,5.69-4.75,1.73,0,3.09.59,4.08,1.78.99,1.19,1.48,2.99,1.48,5.41v26.56h-5.62ZM1167.65,261.4v-25.31c0-2.29-.85-3.44-2.56-3.44-2.17,0-3.25,1.5-3.25,4.5l-2.25-4.75h2.56c.1-1.29.62-2.41,1.55-3.34.93-.94,2.27-1.41,4.02-1.41,2.29,0,3.96.61,5,1.84,1.04,1.23,1.56,3.22,1.56,5.97v25.94h-6.62Z"/>
    <path d="M1199.71,262.03c-5.65,0-10.01-1.48-13.08-4.45-3.07-2.97-4.61-7.23-4.61-12.8s1.3-9.62,3.91-12.62c2.6-3,6.28-4.5,11.03-4.5,4.48,0,7.94,1.35,10.39,4.06,2.45,2.71,3.67,6.65,3.67,11.81,0,1.52-.06,2.94-.19,4.25h-23.25v-5.06h17.44c0-2.98-.71-5.27-2.12-6.86-1.42-1.59-3.38-2.39-5.88-2.39-2.81,0-5,.96-6.55,2.88-1.55,1.92-2.33,4.62-2.33,8.12,0,3.83,1.07,6.75,3.2,8.75,2.13,2,5.17,3,9.11,3,1.38,0,2.73-.08,4.06-.23,1.33-.16,2.69-.37,4.06-.64l.81,5.81c-1.96.38-3.75.61-5.38.72-1.62.1-3.06.16-4.31.16Z"/>
    <path d="M1220.52,261.4v-33.12h6l.62,7v26.12h-6.62ZM1240.9,261.4v-21.56c0-2-.52-3.54-1.56-4.62-1.04-1.08-2.5-1.62-4.38-1.62-5.21,0-7.81,3.06-7.81,9.19l-1.94-8.5h2.56c.19-2.23,1-3.89,2.44-4.98s3.54-1.64,6.31-1.64c3.5,0,6.21,1.06,8.12,3.19,1.92,2.12,2.88,5.12,2.88,9v21.56h-6.62Z"/>
    <path d="M1254.96,233.72v-5.44h30v5.44h-30ZM1263.27,245.78v-27.5h6.62v27.5h-6.62ZM1277.52,262.03c-5.02,0-8.65-1.04-10.89-3.12-2.24-2.08-3.36-5.42-3.36-10v-5.62h6.62v5.31c0,2.62.64,4.53,1.92,5.72s3.39,1.78,6.33,1.78c1.04,0,2.15-.06,3.31-.17,1.17-.11,2.5-.27,4-.45l.75,5.81c-1.46.25-2.88.44-4.27.56-1.39.12-2.86.19-4.42.19Z"/>
    <path d="M1306.46,262.03c-2.5,0-4.64-.07-6.42-.22-1.78-.15-3.41-.39-4.89-.72l.75-6c2.19.33,4.12.58,5.8.75,1.68.17,3.27.25,4.77.25,3.35,0,5.79-.33,7.3-.98,1.51-.66,2.27-1.7,2.27-3.14,0-1-.27-1.74-.8-2.23-.53-.49-1.35-.87-2.45-1.14l-7.62-1.94c-3.27-.83-5.67-1.86-7.2-3.09-1.53-1.23-2.3-3.09-2.3-5.59,0-3.62,1.39-6.25,4.17-7.88s7.27-2.44,13.45-2.44c1.6,0,3.1.05,4.48.14,1.38.09,2.81.26,4.27.48l-.69,5.75c-1.69-.17-3.18-.28-4.47-.34-1.29-.06-2.55-.09-3.78-.09-3.71,0-6.4.32-8.06.95-1.67.64-2.5,1.67-2.5,3.11,0,.96.34,1.65,1.03,2.08.69.43,1.74.82,3.16,1.17l6.12,1.5c3.48.83,6.03,1.95,7.64,3.34,1.61,1.4,2.42,3.43,2.42,6.09,0,3.56-1.3,6.15-3.91,7.77-2.6,1.61-6.78,2.42-12.53,2.42Z"/>
  </g>
</svg>