<svg xmlns="http://www.w3.org/2000/svg" xmlns:xlink="http://www.w3.org/1999/xlink" width="900" zoomAndPan="magnify" viewBox="0 0 675 287.25" height="383" preserveAspectRatio="xMidYMid meet" version="1.0"><defs><clipPath id="77cccc8530"><path d="M 207.289062 21.785156 L 467.703125 21.785156 L 467.703125 264.691406 L 207.289062 264.691406 Z M 207.289062 21.785156 " clip-rule="nonzero"/></clipPath></defs><path fill="#2d6ecb" d="M 433.796875 190.753906 C 425.722656 195.597656 416.679688 198.144531 407.371094 199.296875 C 404.414062 183.710938 398.195312 167.46875 392.957031 155.410156 C 396.992188 150.121094 400.871094 144.710938 404.546875 139.160156 C 406.851562 135.679688 409.253906 131.992188 411.625 128.148438 C 420.414062 132.625 428.628906 137.832031 435.976562 143.851562 C 454.152344 158.753906 455.214844 177.902344 433.796875 190.753906 Z M 395.058594 236.9375 C 378.804688 250.277344 352.867188 240.101562 338.085938 229.75 C 335.375 227.855469 332.785156 225.816406 330.289062 223.675781 C 337.511719 216.855469 344.234375 209.777344 350.277344 203.449219 C 364.523438 205.550781 378.402344 206.621094 391.140625 206.621094 C 395.1875 206.621094 399.429688 206.4375 403.730469 206.023438 C 405.515625 218.078125 404.042969 229.566406 395.058594 236.9375 Z M 262.957031 237.722656 C 256.273438 223.644531 263.640625 201.582031 273.003906 181.804688 C 279.859375 184.824219 287 187.578125 294.320312 190.0625 C 301.476562 202.246094 309.777344 213.839844 319.347656 223.492188 C 295.617188 243.191406 271.664062 256.066406 262.957031 237.722656 Z M 247.734375 159.925781 C 232.484375 149.757812 216.953125 134.1875 236.882812 119.90625 C 243.71875 115.007812 251.835938 111.710938 260.445312 109.5 C 264.054688 121.59375 268.085938 132.25 270.503906 138.71875 C 272.882812 145.074219 275.570312 151.859375 278.597656 158.820312 C 277.023438 161.765625 275.496094 164.710938 274.023438 167.640625 C 273.28125 169.113281 272.347656 170.976562 271.289062 173.144531 C 263.0625 169.265625 255.164062 164.882812 247.734375 159.925781 Z M 274.5 43.050781 C 299.582031 43.050781 321.167969 57.804688 339.125 78.160156 C 331.945312 84.601562 325.160156 91.625 318.773438 99.050781 C 310.195312 98.785156 301.675781 98.925781 293.3125 99.472656 C 284.925781 100.023438 275.433594 100.550781 265.988281 101.917969 C 258.492188 77.160156 251.9375 43.050781 274.5 43.050781 Z M 389.46875 147.640625 C 384.117188 136.046875 378.382812 124.515625 371.898438 113.453125 C 382.78125 116.257812 393.441406 119.832031 403.496094 124.285156 C 398.863281 132.765625 393.929688 140.816406 389.46875 147.640625 Z M 343.503906 83.3125 C 348.652344 89.605469 353.476562 96.328125 357.976562 103.234375 C 347.925781 101.359375 337.761719 100.125 327.632812 99.46875 C 327.871094 99.222656 328.105469 98.972656 328.34375 98.726562 C 332.992188 93.914062 338.058594 88.582031 343.503906 83.3125 Z M 283.367188 150.144531 C 279.882812 141.488281 276.710938 132.847656 273.691406 124.515625 C 272.523438 121.289062 270.265625 115.253906 267.859375 107.871094 C 280.238281 105.578125 293.164062 105.128906 304.5 105.128906 C 307.476562 105.128906 310.507812 105.183594 313.570312 105.285156 C 302.144531 119.421875 292.078125 134.757812 283.367188 150.144531 Z M 289.035156 180.589844 C 284.675781 178.972656 280.378906 177.230469 276.15625 175.367188 C 277.929688 171.851562 279.722656 168.453125 281.464844 165.230469 C 283.804688 170.332031 286.328125 175.480469 289.035156 180.589844 Z M 299.269531 184.132812 C 294.355469 175.320312 290.027344 166.09375 286.105469 156.800781 C 287.976562 153.449219 289.679688 150.425781 291.089844 147.839844 C 299.476562 132.460938 310.074219 118.59375 321.835938 105.675781 C 335.277344 106.511719 349.273438 108.34375 363.070312 111.355469 C 371.855469 125.871094 379.242188 140.792969 385.203125 154.015625 C 381.023438 160.113281 377.613281 164.628906 375.820312 166.691406 C 372.308594 170.726562 362.078125 182.480469 349.054688 195.777344 C 332.367188 193.144531 315.496094 189.386719 299.269531 184.132812 Z M 304.753906 193.386719 C 317.207031 197.105469 330.003906 200.0625 342.625 202.230469 C 336.992188 207.785156 331 213.429688 324.910156 218.75 C 317.246094 211.246094 310.605469 202.640625 304.753906 193.386719 Z M 390.699219 166.632812 C 394.296875 175.160156 399.722656 187.445312 402.546875 199.773438 C 394.234375 200.390625 385.800781 200.027344 377.738281 199.300781 C 370.792969 198.675781 363.722656 197.882812 356.59375 196.894531 C 367.710938 185.523438 378.476562 173.714844 388.402344 161.257812 C 389.199219 163.09375 389.964844 164.890625 390.699219 166.632812 Z M 400.136719 52.8125 C 432.578125 52.8125 422.789062 87.023438 406.757812 118.144531 C 393.996094 112.476562 380.527344 108.140625 366.746094 105.035156 C 361.222656 96.390625 355.160156 88.113281 348.347656 80.417969 C 348.082031 80.117188 347.808594 79.808594 347.53125 79.496094 C 362.710938 65.441406 380.550781 52.8125 400.136719 52.8125 Z M 434.164062 133.230469 C 428.109375 129.140625 421.761719 125.457031 415.199219 122.144531 C 423.523438 107.636719 430.429688 91.34375 429.355469 75.429688 C 427.386719 46.171875 399.183594 41.433594 376.398438 52.574219 C 364.511719 58.386719 353.421875 65.925781 343.113281 74.683594 C 325.511719 55.980469 292.800781 26.773438 268.695312 35.726562 C 247.394531 43.636719 251.171875 75.742188 258.640625 103.171875 C 247.109375 105.46875 236.113281 109.382812 227.820312 116.546875 C 208.78125 132.996094 225.289062 153.027344 241.214844 164.214844 C 249.308594 169.898438 258.421875 175.039062 268.207031 179.625 C 256.210938 205.519531 237.785156 254.265625 273.433594 254.269531 C 291.476562 254.269531 309.160156 242.605469 324.832031 228.675781 C 339.007812 241.210938 355.757812 249.378906 375.4375 249.378906 C 405.550781 249.378906 411.445312 228.953125 408.367188 205.480469 C 424.707031 203.238281 441.289062 197.289062 451.191406 184.34375 C 466.476562 164.367188 451.707031 145.066406 434.164062 133.230469 " fill-opacity="1" fill-rule="nonzero"/><path fill="#f46a61" d="M 362.003906 148.367188 C 360.6875 159.902344 350.410156 168.589844 339.515625 171.226562 C 327.460938 174.144531 316.175781 164.707031 313.570312 153.238281 C 311.5625 144.398438 314.589844 135.765625 320.84375 129.871094 C 326.007812 120.820312 340.09375 119.476562 348.863281 123.535156 C 358.117188 127.820312 363.136719 138.445312 362.003906 148.367188 " fill-opacity="1" fill-rule="nonzero"/><g clip-path="url(#77cccc8530)"><path fill="#2e2e30" d="M 434.300781 155.738281 C 430.34375 155.351562 427.207031 156.019531 423.535156 153.84375 C 420.105469 151.8125 418.3125 148.816406 416.691406 145.292969 C 416.382812 144.625 415.320312 144.972656 415.335938 145.660156 C 415.4375 150.050781 418.648438 153.835938 422.253906 156.035156 C 425.539062 158.039062 431.277344 159.769531 434.714844 157.273438 C 435.394531 156.78125 435.136719 155.820312 434.300781 155.738281 Z M 360.386719 169.40625 C 355.46875 171.207031 351.25 174.3125 346.109375 175.746094 C 340.65625 177.269531 335.273438 177.230469 329.675781 177.230469 C 328.675781 177.230469 328.464844 178.707031 329.4375 178.972656 C 335.054688 180.515625 341.277344 179.902344 346.847656 178.421875 C 351.886719 177.082031 358.015625 174.820312 361.246094 170.519531 C 361.636719 170 360.984375 169.1875 360.386719 169.40625 Z M 304.460938 22.734375 C 301.011719 21.460938 295.265625 21.0625 292.65625 24.195312 C 292.351562 24.558594 292.523438 25.222656 293.070312 25.199219 C 294.914062 25.121094 296.644531 24.40625 298.507812 24.371094 C 300.789062 24.335938 303.136719 24.914062 305.128906 26.015625 C 308.339844 27.792969 309.667969 32.796875 313.296875 33.496094 C 314.011719 33.632812 314.453125 32.980469 314.179688 32.347656 C 312.433594 28.269531 308.664062 24.277344 304.460938 22.734375 Z M 274.488281 49.804688 C 268.996094 50.601562 265.214844 57.605469 263.96875 62.429688 C 262.839844 66.816406 262.40625 75.363281 267.003906 78.039062 C 267.621094 78.398438 268.417969 77.9375 268.417969 77.226562 C 268.417969 75.113281 267.292969 73.179688 266.902344 71.105469 C 266.417969 68.527344 266.542969 65.855469 267.15625 63.308594 C 267.742188 60.882812 268.75 58.570312 270.210938 56.542969 C 271.679688 54.503906 273.753906 53.121094 275.304688 51.199219 C 275.847656 50.523438 275.332031 49.683594 274.488281 49.804688 Z M 464.90625 158.671875 C 464.449219 157.757812 463.074219 158.40625 463.300781 159.347656 C 464.945312 166.0625 465.65625 172.628906 463.957031 179.425781 C 463.175781 182.554688 461.96875 185.550781 460.371094 188.355469 C 458.734375 191.242188 456.402344 193.652344 454.757812 196.511719 C 454.355469 197.210938 455.144531 197.933594 455.824219 197.582031 C 461.898438 194.414062 465.328125 185.988281 466.753906 179.675781 C 468.3125 172.789062 468.125 165.074219 464.90625 158.671875 Z M 434.949219 51.71875 C 429.445312 44.28125 420.753906 39.40625 411.542969 38.644531 C 410.757812 38.578125 410.605469 39.824219 411.359375 40.011719 C 420.101562 42.160156 428.660156 46.410156 433.714844 54.152344 C 436.519531 58.445312 437.832031 63.371094 438.300781 68.4375 C 438.746094 73.28125 437.578125 78.574219 438.585938 83.285156 C 438.761719 84.105469 439.871094 83.96875 440.113281 83.285156 C 441.890625 78.277344 441.261719 71.230469 440.542969 66.039062 C 439.832031 60.867188 438.0625 55.933594 434.949219 51.71875 Z M 399.652344 250.078125 C 394.125 252.746094 388.933594 255.652344 382.828125 256.851562 C 376.621094 258.066406 370.121094 257.863281 363.96875 256.460938 C 362.847656 256.203125 362.410156 257.8125 363.496094 258.175781 C 375.183594 262.070312 391.667969 260.714844 400.574219 251.269531 C 401.183594 250.625 400.421875 249.707031 399.652344 250.078125 Z M 348.054688 255.539062 C 344.417969 253.332031 340.398438 251.929688 336.847656 249.53125 C 333.039062 246.957031 330.097656 243.628906 326.613281 240.707031 C 326.097656 240.277344 325.386719 240.804688 325.6875 241.417969 C 329.269531 248.714844 339.535156 256.183594 347.6875 256.894531 C 348.4375 256.960938 348.632812 255.890625 348.054688 255.539062 Z M 266.140625 261.757812 C 256.035156 262.171875 248.671875 256.789062 245.832031 246.992188 C 242.851562 236.707031 245.617188 226.171875 244.777344 215.738281 C 244.707031 214.855469 243.347656 214.535156 243.136719 215.515625 C 241.757812 221.925781 241.390625 228.898438 241.320312 235.441406 C 241.265625 241.019531 241.878906 246.601562 244.113281 251.757812 C 247.542969 259.664062 257.511719 268.3125 266.507812 263.113281 C 267.117188 262.761719 266.871094 261.726562 266.140625 261.757812 Z M 222.347656 159.261719 C 222.871094 159.730469 222.441406 160.613281 221.785156 160.617188 C 215.460938 160.628906 210.917969 153.496094 209.011719 148.242188 C 206.003906 139.945312 207.507812 131.109375 209.210938 122.71875 C 209.425781 121.648438 211.230469 121.890625 211.121094 122.976562 C 210.394531 130.316406 209.316406 138.273438 211.414062 145.476562 C 212.320312 148.59375 213.871094 151.589844 216.027344 154.027344 C 217.867188 156.113281 220.285156 157.4375 222.347656 159.261719 " fill-opacity="1" fill-rule="nonzero"/></g><path fill="#f6b737" d="M 300.136719 127.269531 C 297.175781 125.589844 293.726562 124.386719 290.363281 125.515625 C 288.957031 125.984375 287.328125 127.023438 286.46875 128.371094 C 284.132812 131.394531 283.871094 136.257812 285.359375 140.066406 C 288.199219 147.339844 294.886719 147.894531 300.707031 143.515625 C 303.53125 141.390625 305.882812 138.386719 305.78125 134.679688 C 305.679688 131.105469 303.019531 128.90625 300.136719 127.269531 Z M 442.964844 132.964844 C 433.019531 119.933594 413.890625 135.238281 422.367188 146.441406 C 430.191406 156.789062 452.164062 145.023438 442.964844 132.964844 Z M 306.117188 51.449219 C 300.265625 56.207031 290.664062 57.640625 287.050781 49.375 C 285.144531 45.003906 286.304688 40.667969 289.078125 37.558594 C 292.351562 30.835938 299.742188 27.675781 306.628906 32.832031 C 313.269531 37.800781 312.234375 46.472656 306.117188 51.449219 " fill-opacity="1" fill-rule="nonzero"/><path fill="#ffffff" d="M 297.140625 128.421875 C 296.449219 128.390625 295.96875 129.398438 296.542969 129.867188 C 297.875 130.945312 299.238281 131.644531 300.050781 133.257812 C 300.757812 134.664062 300.589844 136.300781 301.234375 137.675781 C 301.390625 138.003906 301.859375 138.007812 302.09375 137.785156 C 303.570312 136.371094 302.816406 133.691406 301.980469 132.128906 C 301.035156 130.375 299.242188 128.519531 297.140625 128.421875 Z M 432.03125 132.820312 C 432.398438 132.515625 432.203125 131.824219 431.742188 131.730469 C 423.996094 130.175781 419.613281 145.890625 429.367188 145.90625 C 429.949219 145.90625 430.15625 145.230469 429.8125 144.828125 C 429.140625 144.027344 428.285156 143.511719 427.554688 142.777344 C 426.148438 141.359375 426.277344 139.292969 427.132812 137.589844 C 428.273438 135.320312 430.1875 134.367188 432.03125 132.820312 Z M 295.222656 34.699219 C 292.082031 36.769531 289.308594 39.394531 289.460938 43.476562 C 289.550781 45.929688 291.199219 49.949219 294.242188 49.300781 C 294.714844 49.199219 294.84375 48.65625 294.660156 48.277344 C 293.683594 46.269531 291.898438 45.355469 291.988281 42.785156 C 292.082031 40.097656 294.03125 37.375 295.921875 35.605469 C 296.398438 35.164062 295.773438 34.332031 295.222656 34.699219 Z M 348.257812 161.3125 C 345.871094 161.574219 343.671875 162.699219 341.308594 163.183594 C 338.402344 163.777344 335.453125 163.9375 332.503906 163.734375 C 331.640625 163.675781 331.449219 165.066406 332.296875 165.246094 C 337.28125 166.3125 344.875 166.542969 348.835938 162.699219 C 349.304688 162.246094 348.980469 161.234375 348.257812 161.3125 Z M 328.148438 129.390625 C 324.609375 133.886719 322.457031 139.292969 321.640625 144.933594 C 321.214844 147.886719 320.871094 151.121094 321.789062 154.011719 C 322.671875 156.816406 324.886719 158.800781 326.441406 161.214844 C 326.804688 161.773438 326.207031 162.347656 325.644531 162.25 C 318.578125 161.03125 317.546875 151.867188 318.300781 146.171875 C 319.207031 139.285156 321.527344 132.523438 327.292969 128.28125 C 328 127.761719 328.597656 128.828125 328.148438 129.390625 " fill-opacity="1" fill-rule="nonzero"/></svg>