<?xml version="1.0" encoding="UTF-8" standalone="no"?>
<svg
   fill="currentColor"
   fill-rule="evenodd"
   height="22.334398"
   style="line-height:1"
   viewBox="0 0 71.274223 22.334399"
   version="1.1"
   id="svg1"
   xml:space="preserve"
   width="71.274223"
   xmlns="http://www.w3.org/2000/svg"
   xmlns:svg="http://www.w3.org/2000/svg"
   xmlns:rdf="http://www.w3.org/1999/02/22-rdf-syntax-ns#"
   xmlns:cc="http://creativecommons.org/ns#"
   xmlns:dc="http://purl.org/dc/elements/1.1/"><defs
     id="defs1"><clipPath
       clipPathUnits="userSpaceOnUse"
       id="clipPath1"><rect
         style="fill:#000000"
         id="rect2"
         width="20.674669"
         height="21.978477"
         x="0"
         y="1.986755" /></clipPath></defs><title
     id="title1">Qwen</title><g
     id="g2"
     transform="translate(-0.04260909,-0.09053358)"><path
       d="M 4.6799246,12.353774 H 6.471872 l 0.7523029,0.883182 a 3.8820606,3.8820606 0 0 0 1.0657216,-1.39341 4.1133113,4.1133113 0 0 0 0.37935,-1.752586 C 8.6692465,9.0921538 8.362224,8.2881884 7.7471949,7.677588 7.1370869,7.0625594 6.3282012,6.7555371 5.3210301,6.7555371 c -0.5057995,0 -0.9791255,0.091516 -1.4194856,0.2745487 A 3.43924,3.43924 0 0 0 2.7241338,7.828147 4.2195883,4.2195883 0 0 0 1.8414445,9.1753056 4.1103592,4.1103592 0 0 0 1.5339303,10.744859 c 0,0.985522 0.3006261,1.79244 0.9023701,2.420261 0.6017439,0.627821 1.3673313,0.941732 2.2957784,0.941732 0.191889,0 0.3901743,-0.01525 0.5953476,-0.04576 0.2091103,-0.03051 0.4270764,-0.07872 0.653899,-0.144163 z M 7.9494164,16.225995 6.9028838,15.015618 C 6.532391,15.159781 6.1746903,15.26655 5.830274,15.336417 a 4.8415052,4.8415052 0 0 1 -1.0199631,0.111197 c -1.461308,0 -2.6205139,-0.418219 -3.4795862,-1.255642 -0.8585798,-0.837423 -1.28811561,-1.968584 -1.28811561,-3.394958 0,-0.775921 0.13776624,-1.5016548 0.41182275,-2.1776942 A 4.9930483,4.9930483 0 0 1 1.6382389,6.859846 5.1303226,5.1303226 0 0 1 3.3455585,5.7744434 C 3.9910927,5.5259719 4.681893,5.4014901 5.418943,5.4014901 c 1.4342467,0 2.5831201,0.4231397 3.4466203,1.268927 0.8635003,0.8462794 1.2950047,1.9730118 1.2950047,3.3811809 0,0.867929 -0.1741768,1.672386 -0.523021,2.413373 A 4.9969844,4.9969844 0 0 1 8.1462257,14.32285 L 9.742348,16.225995 Z M 10.775104,9.0055577 h 1.418994 l 1.007171,3.1651833 0.02657,0.07872 c 0.122022,0.388206 0.186969,0.675548 0.196317,0.863501 0.04773,-0.148592 0.108737,-0.305054 0.183033,-0.471359 0.07872,-0.169747 0.174176,-0.350812 0.287834,-0.542701 l 2.07978,-3.5514215 1.013567,3.6557305 c 0.03936,0.135307 0.07184,0.275041 0.0984,0.418712 0.02608,0.144162 0.04773,0.309974 0.06544,0.496943 0.06495,-0.183033 0.130386,-0.348352 0.195826,-0.496943 0.06987,-0.147607 0.137766,-0.276517 0.202713,-0.385747 L 19.42831,9.0050658 h 1.59563 l -4.204826,6.5862192 -1.046533,-3.466302 a 4.2722347,4.2722347 0 0 1 -0.104801,-0.392634 8.7806401,8.7806401 0 0 1 -0.07184,-0.477262 34.033223,34.033223 0 0 1 -0.25536,0.52302 c -0.0738,0.148591 -0.130385,0.2529 -0.169748,0.313911 l -2.105854,3.499267 -2.289382,-6.5857273 z m 12.001422,2.3543303 h 3.198149 c -0.01279,-0.41822 -0.143671,-0.747875 -0.392142,-0.98749 -0.244043,-0.244536 -0.573699,-0.366558 -0.987982,-0.366558 -0.470866,0 -0.869897,0.122022 -1.1966,0.366558 -0.327195,0.244043 -0.534337,0.573206 -0.621425,0.98749 z m 3.119426,1.942506 1.014059,0.791173 c -0.361637,0.475295 -0.754271,0.821679 -1.176919,1.040136 -0.42314,0.217966 -0.909258,0.327196 -1.458848,0.327196 -0.920083,0 -1.663038,-0.277009 -2.23034,-0.831027 -0.56681,-0.557954 -0.850215,-1.290576 -0.850215,-2.197374 0,-1.063754 0.324735,-1.93611 0.974205,-2.6160865 0.65439,-0.6844039 1.484925,-1.0268518 2.492588,-1.0268518 0.841359,0 1.510511,0.2617562 2.007453,0.7847765 0.501864,0.5190838 0.752795,1.2167728 0.752795,2.0930658 0,0.0738 -0.0049,0.169748 -0.01328,0.287834 -0.0049,0.113165 -0.01328,0.250931 -0.02657,0.411823 h -4.72834 c 0,0.562382 0.141703,1.011599 0.425107,1.347159 0.283406,0.331623 0.660295,0.496943 1.131653,0.496943 0.326704,0 0.636185,-0.07823 0.928447,-0.235187 a 2.279542,2.279542 0 0 0 0.7587,-0.67358 z m 7.044291,1.903145 0.470866,-3.564214 c 0.0089,-0.06544 0.01525,-0.132847 0.01968,-0.202714 0.0044,-0.07429 0.0064,-0.181064 0.0064,-0.320799 0,-0.405427 -0.0984,-0.714909 -0.29423,-0.928447 -0.196311,-0.2184583 -0.482177,-0.3271954 -0.856606,-0.3271954 -0.584523,0 -1.042105,0.1894284 -1.373728,0.5687784 -0.331132,0.375414 -0.54713,0.953049 -0.647502,1.733397 l -0.39215,3.041194 h -1.406202 l 0.81725,-6.1999813 h 1.354047 l -0.104801,0.7454148 c 0.357701,-0.3267033 0.726226,-0.5687786 1.105575,-0.7257338 a 3.1981488,3.1981488 0 0 1 1.22317,-0.235679 c 0.636185,0 1.131652,0.1677798 1.484432,0.5038315 0.357701,0.3311313 0.536306,0.7980608 0.536306,1.3998058 0,0.152527 -0.0089,0.331131 -0.02608,0.536305 -0.01771,0.200253 -0.04379,0.435932 -0.07872,0.706053 l -0.431507,3.270476 h -1.406201 z"
       id="path1"
       style="stroke-width:0.492023" /><path
       d="M 47.308494,5.5551719 V 4.4940652 a 2.6967451,2.6967451 0 0 1 -0.374289,-0.1740524 2.2794141,2.2794141 0 0 1 -0.945077,-2.8258757 2.3187142,2.3187142 0 0 1 0.494061,-0.73921816 2.2850284,2.2850284 0 0 1 0.733604,-0.4921912 2.2457282,2.2457282 0 0 1 0.872091,-0.1721733 2.2719283,2.2719283 0 0 1 2.099755,1.40358076 2.2719283,2.2719283 0 0 1 0,1.7348248 2.2606997,2.2606997 0 0 1 -0.494059,0.7373473 l -0.01123,0.011307 a 2.3842146,2.3842146 0 0 1 -0.441659,0.3424744 2.1072416,2.1072416 0 0 1 -0.374287,0.1740526 v 1.0611066 h 5.32986 a 2.8951178,2.8951178 0 0 1 2.885762,2.8876326 v 0.428559 h 0.988122 a 1.484052,1.484052 0 0 1 1.478437,1.4803075 v 3.437837 a 1.484052,1.484052 0 0 1 -1.478437,1.480308 h -0.982507 v 0.387389 a 2.8969892,2.8969892 0 0 1 -2.891377,2.887631 h -7.311713 l -4.382913,3.763467 a 0.48283148,0.48283148 0 0 1 -0.683077,-0.05428 0.49218869,0.49218869 0 0 1 -0.117899,-0.346215 l 0.233931,-3.368594 h -0.0393 A 2.8913749,2.8913749 0 0 1 39.012402,15.657274 V 15.269885 H 38.029896 A 1.484052,1.484052 0 0 1 36.549585,13.789577 V 10.351741 A 1.484052,1.484052 0 0 1 38.028022,8.8714326 H 39.0124 V 8.4410008 A 2.8913749,2.8913749 0 0 1 41.896288,5.5552409 Z M 52.03388,8.9462205 A 1.7516679,1.7516679 0 1 1 50.282212,10.69789 1.7516679,1.7516679 0 0 1 52.03388,8.9462205 Z m -7.968591,0 A 1.7516679,1.7516679 0 1 1 42.313621,10.69789 1.7516679,1.7516679 0 0 1 44.065289,8.9462205 Z m 1.193977,5.8688365 a 0.42668832,0.42668832 0 0 1 -0.07111,-0.0711 0.40797394,0.40797394 0 0 1 -0.09732,-0.254516 0.41358825,0.41358825 0 0 1 0.08609,-0.26013 0.44914562,0.44914562 0 0 1 0.07299,-0.07299 0.60260375,0.60260375 0 0 1 0.726119,-0.01494 4.18454,4.18454 0 0 0 1.053621,0.606344 2.78096,2.78096 0 0 0 1.023679,0.187144 3.0279899,3.0279899 0 0 0 1.034905,-0.20586 4.7515869,4.7515869 0 0 0 1.076079,-0.602602 0.60634658,0.60634658 0 0 1 0.727989,0.03369 0.56143209,0.56143209 0 0 1 0.06925,0.07673 0.4154597,0.4154597 0 0 1 0.0786,0.262003 0.43604554,0.43604554 0 0 1 -0.108542,0.252642 0.42855979,0.42855979 0 0 1 -0.08047,0.0711 5.7247358,5.7247358 0 0 1 -1.371765,0.748575 4.1695685,4.1695685 0 0 1 -1.409196,0.267617 3.971196,3.971196 0 0 1 -1.414808,-0.239545 5.1988602,5.1988602 0 0 1 -1.386736,-0.778519 v 0 z M 54.195393,6.5283209 H 41.896288 a 1.9200975,1.9200975 0 0 0 -1.912611,1.9144835 v 7.2144006 a 1.9200975,1.9200975 0 0 0 1.912611,1.914482 h 0.593248 a 0.48844586,0.48844586 0 0 1 0.451016,0.518388 l -0.187142,2.728563 3.611879,-3.108464 a 0.47908867,0.47908867 0 0 1 0.342474,-0.140359 h 7.485759 a 1.9200975,1.9200975 0 0 0 1.912612,-1.914482 V 8.4409318 A 1.9163547,1.9163547 0 0 0 54.195393,6.5283209 Z"
       id="path1-8"
       style="stroke-width:0.187143" /><g
       style="line-height:1;fill:currentColor;fill-rule:evenodd"
       id="g1"
       transform="matrix(0.48961241,0,0,0.48961241,61.200745,5.5403245)"><path
         d="m 9.438245,16.116755 h 3.642 l 1.529,1.795 a 7.89,7.89 0 0 0 2.166,-2.832 8.36,8.36 0 0 0 0.771,-3.562 c 0,-2.03 -0.624,-3.664 -1.874,-4.905 -1.24,-1.25 -2.884,-1.874 -4.931,-1.874 -1.028,0 -1.99,0.186 -2.885,0.558 a 6.99,6.99 0 0 0 -2.393,1.622 8.576,8.576 0 0 0 -1.794,2.738 8.354,8.354 0 0 0 -0.625,3.19 c 0,2.003 0.611,3.643 1.834,4.919 1.223,1.276 2.779,1.914 4.666,1.914 0.39,0 0.793,-0.031 1.21,-0.093 0.425,-0.062 0.868,-0.16 1.329,-0.293 z m 6.645,7.87 -2.127,-2.46 c -0.753,0.293 -1.48,0.51 -2.18,0.652 a 9.84,9.84 0 0 1 -2.073,0.226 c -2.97,0 -5.326,-0.85 -7.072,-2.552 -1.74499997,-1.702 -2.61799997,-4.001 -2.61799997,-6.9 0,-1.577 0.28,-3.052 0.837,-4.426 a 10.148,10.148 0 0 1 2.40599997,-3.576 10.427,10.427 0 0 1 3.47,-2.206 c 1.312,-0.505 2.716,-0.758 4.214,-0.758 2.915,0 5.25,0.86 7.005,2.579 1.755,1.72 2.632,4.01 2.632,6.872 0,1.764 -0.354,3.399 -1.063,4.905 a 10.156,10.156 0 0 1 -3.031,3.776 l 3.244,3.868 z m 5.743,-14.675 h 2.884 l 2.047,6.433 0.054,0.16 c 0.248,0.789 0.38,1.373 0.399,1.755 0.097,-0.302 0.221,-0.62 0.372,-0.958 0.16,-0.345 0.354,-0.713 0.585,-1.103 l 4.227,-7.218 2.06,7.43 c 0.08,0.275 0.146,0.559 0.2,0.851 0.053,0.293 0.097,0.63 0.133,1.01 0.132,-0.372 0.265,-0.708 0.398,-1.01 0.142,-0.3 0.28,-0.562 0.412,-0.784 l 3.816,-6.567 h 3.243 l -8.546,13.386 -2.127,-7.045 a 8.683,8.683 0 0 1 -0.213,-0.798 17.846,17.846 0 0 1 -0.146,-0.97 69.17,69.17 0 0 1 -0.519,1.063 c -0.15,0.302 -0.265,0.514 -0.345,0.638 l -4.28,7.112 -4.653,-13.385 z m 24.392,4.785 h 6.5 c -0.026,-0.85 -0.292,-1.52 -0.797,-2.007 -0.496,-0.497 -1.166,-0.745 -2.008,-0.745 -0.957,0 -1.768,0.248 -2.432,0.745 -0.665,0.496 -1.086,1.165 -1.263,2.007 z m 6.34,3.948 2.061,1.608 c -0.735,0.966 -1.533,1.67 -2.392,2.114 -0.86,0.443 -1.848,0.665 -2.965,0.665 -1.87,0 -3.38,-0.563 -4.533,-1.689 -1.152,-1.134 -1.728,-2.623 -1.728,-4.466 0,-2.162 0.66,-3.935 1.98,-5.317 1.33,-1.391 3.018,-2.087 5.066,-2.087 1.71,0 3.07,0.532 4.08,1.595 1.02,1.055 1.53,2.473 1.53,4.254 0,0.15 -0.01,0.345 -0.027,0.585 -0.01,0.23 -0.027,0.51 -0.054,0.837 h -9.61 c 0,1.143 0.288,2.056 0.864,2.738 0.576,0.674 1.342,1.01 2.3,1.01 0.664,0 1.293,-0.159 1.887,-0.478 a 4.633,4.633 0 0 0 1.542,-1.369 z m 14.317,3.868 0.957,-7.244 c 0.018,-0.133 0.031,-0.27 0.04,-0.412 0.009,-0.151 0.013,-0.368 0.013,-0.652 0,-0.824 -0.2,-1.453 -0.598,-1.887 -0.399,-0.444 -0.98,-0.665 -1.741,-0.665 -1.188,0 -2.118,0.385 -2.792,1.156 -0.673,0.763 -1.112,1.937 -1.316,3.523 l -0.797,6.181 h -2.858 l 1.661,-12.601 h 2.752 l -0.213,1.515 c 0.727,-0.664 1.476,-1.156 2.247,-1.475 a 6.5,6.5 0 0 1 2.486,-0.479 c 1.293,0 2.3,0.341 3.017,1.024 0.727,0.673 1.09,1.622 1.09,2.845 0,0.31 -0.018,0.673 -0.053,1.09 -0.036,0.407 -0.089,0.886 -0.16,1.435 l -0.877,6.647 h -2.858 z"
         id="path1-5"
         clip-path="url(#clipPath1)"
         transform="translate(-0.01324503,-1.986755)" /></g></g><metadata
     id="metadata2"><rdf:RDF><cc:Work
         rdf:about=""><dc:title>Qwen</dc:title></cc:Work></rdf:RDF></metadata></svg>
