<svg width="675" height="235" xmlns="http://www.w3.org/2000/svg" xml:space="preserve" shape-rendering="geometricPrecision" text-rendering="geometricPrecision" image-rendering="optimizeQuality" fill-rule="evenodd" clip-rule="evenodd">
 <g>
  <title>Layer 1</title>
  <path d="m149.38788,128.28604c12.84721,0 24.48636,5.22156 32.92274,13.65393c8.46447,8.42835 13.68604,20.08757 13.68604,32.95084c0,12.86728 -5.22156,24.5265 -13.65393,32.95485l-0.52978,0.48965c-8.39624,8.14339 -19.8307,13.16428 -32.42507,13.16428c-12.86728,0 -24.52249,-5.22156 -32.95084,-13.65393c-8.43236,-8.42835 -13.65393,-20.08757 -13.65393,-32.95485s5.22156,-24.52249 13.65393,-32.95084c8.42835,-8.43236 20.08355,-13.65393 32.95084,-13.65393zm-32.81438,-97.00228l0,21.74514c0.39734,5.18946 2.20743,9.26717 5.38612,11.9803c3.29107,2.81346 8.21162,4.39077 14.72553,4.50716l15.21919,-0.01605l-35.33084,-38.21655zm36.60713,48.35866l-16.57576,-0.01605c-9.02636,-0.14047 -16.13828,-2.56864 -21.23142,-6.91927c-5.30986,-4.53927 -8.29992,-10.97692 -8.90596,-18.95576l-0.04415,-0.69835l0,-26.90249l-62.18918,0c-4.14996,0 -7.92666,1.69771 -10.65584,4.42689c-2.72918,2.72918 -4.42689,6.50588 -4.42689,10.65584l0,135.05026c0,4.13391 1.70574,7.91061 4.43893,10.6438c2.72918,2.72918 6.5099,4.43492 10.6438,4.43492l47.9252,0c1.01943,3.52787 2.35592,6.92329 3.98139,10.15014l-51.9066,0c-6.93533,0 -13.25258,-2.84156 -17.82395,-7.40892c-4.56736,-4.57138 -7.40892,-10.88461 -7.40892,-17.81994l0,-135.05026c0,-6.9273 2.84156,-13.23652 7.40491,-17.80389c4.59144,-4.58743 10.90067,-7.42899 17.82797,-7.42899l69.78674,0c1.64955,0 3.11448,0.78665 4.04159,2.00675l43.90368,47.49576c0.89902,0.97528 1.34051,2.20341 1.34051,3.43154l0.01204,48.04962c-3.28304,-0.79066 -6.67044,-1.30439 -10.1381,-1.52112l0,-35.82049l0.00001,0.00001zm-92.21418,21.86956c-2.80142,0 -5.07306,-2.27164 -5.07306,-5.07306c0,-2.80544 2.27164,-5.07708 5.07306,-5.07708l60.39916,0c2.80142,0 5.07708,2.27164 5.07708,5.07708c0,2.80142 -2.27565,5.07306 -5.07708,5.07306l-60.39916,0zm0,29.01761c-2.80142,0 -5.07306,-2.27164 -5.07306,-5.07708c0,-2.80142 2.27164,-5.07306 5.07306,-5.07306l57.2004,0c1.48901,0 2.82952,0.64216 3.76065,1.6656a59.81319,59.81319 0 0 0 -12.25723,8.48454l-48.70382,0zm0,29.01761c-2.80142,0 -5.07306,-2.27164 -5.07306,-5.07708c0,-2.80142 2.27164,-5.07306 5.07306,-5.07306l34.59637,0c-1.53316,3.23087 -2.78938,6.62629 -3.72854,10.15014l-30.86783,0zm92.46703,-7.69388l-4.14193,21.04278l-4.19411,-6.32126c-9.05446,3.62419 -14.12752,9.61233 -14.87804,18.82332c-7.433,-12.98769 -2.92183,-24.62684 6.48983,-31.44577l-4.2824,-6.45772l21.00666,4.35866l-0.00001,-0.00001zm-8.09122,46.07899l4.14193,-21.04278l4.19812,6.32528c9.05446,-3.62419 14.12351,-9.61233 14.88206,-18.82733c7.42498,12.9917 2.9138,24.63085 -6.49786,31.44979l4.2824,6.45772l-21.00666,-4.36267l0.00001,-0.00001z" id="svg_1"/>
  <text x="199.61857" y="152.4124" id="svg_3" fill="#000000" stroke-width="0" font-size="96" font-family="'Roboto Mono'" text-anchor="start" xml:space="preserve">SyncFile</text>
 </g>

</svg>